<?xml version="1.0" encoding="utf-8"?>
<!-- Generator: Adobe Illustrator 12.0.0, SVG Export Plug-In . SVG Version: 6.00 Build 51448)  -->
<!DOCTYPE svg PUBLIC "-//W3C//DTD SVG 1.1//EN" "http://www.w3.org/Graphics/SVG/1.1/DTD/svg11.dtd" [
	<!ENTITY ns_svg "http://www.w3.org/2000/svg">
	<!ENTITY ns_xlink "http://www.w3.org/1999/xlink">
]>
<svg  version="1.1" id="Layer_1" xmlns="&ns_svg;" xmlns:xlink="&ns_xlink;" width="498.007" height="202.539"
	 viewBox="0 0 498.007 202.539" overflow="visible" enable-background="new 0 0 498.007 202.539" xml:space="preserve">
<g>
	<path d="M7,43.92v-1.25h5.25v-30.9c-7.05-0.35-9.2,3.05-10.1,9.45h-1.6l0.55-10.7h28.65l0.55,10.7h-1.55
		c-0.9-6.4-3.05-9.8-10.1-9.45v30.9h5.25v1.25H7z"/>
	<path d="M33.399,43.92v-1.25h3.3v-30.9h-3.6v-1.25c3.05,0.1,6.05-0.2,9-0.75v18.85h0.1c1.25-3,3.85-4.8,7.2-4.8
		c1.95,0,5.45,0.7,5.95,3.05c0.5,2.45,0.45,5.55,0.45,8.05v7.75h3.15v1.25h-11.6v-1.25h3.15v-9c0-4.65,0.5-8.2-2.85-8.2
		c-2.15,0-4.1,2.45-4.85,4.3c-0.65,1.65-0.65,3.95-0.65,6.3v6.6h3v1.25H33.399z"/>
	<path d="M67.449,32.87v4c0,3.5,0.2,6.8,4.45,6.8c3.6,0,6.35-2.6,7.35-6h1.25c-1.3,4.85-4.75,7-9.6,7c-5.45,0-9.4-5.25-9.4-10.35
		c0-5.5,4.5-10.5,9.95-10.5c4.65,0,8.95,3.2,8.95,8.15c0,1.05-0.45,0.9-1.25,0.9H67.449z M74.75,31.62c0-3.35,0.85-6.8-3.6-6.8
		c-4.15,0-3.7,3.65-3.7,6.8H74.75z"/>
	<path d="M125.849,54.47c-8.1,0.5-17.3-0.2-16.7-10.2c-2.8-0.4-12.1-4.95-12.1-17.9c0-8.15,7.25-16.6,15.6-16.6
		c8.7,0,15.55,8.35,15.55,16.6c0,12.95-9.35,17.5-11.95,17.9c-0.4,7.65,2.6,9.15,9.6,9V54.47z M120.849,26.37
		c0-6.9,0.6-15.35-8.2-15.35c-8.95,0.15-8.25,8.55-8.25,15.35c0,6.75-1.2,17.2,8.25,17.2C122.149,43.57,120.849,33.32,120.849,26.37
		z"/>
	<path d="M148.598,39.92h-0.15c-1.4,2.8-4.1,4.75-7.35,4.75c-4.8,0-6.05-2.5-6.05-4.85V25.37h-3.25v-1.25c2.5,0.1,5.55-0.1,8.55-0.2
		v15.55c0,2.05-0.15,3.6,2.4,3.6c1.85,0,5.85-2.05,5.85-8.05v-9.65h-3.8v-1.25c3.05,0.1,6.1-0.1,9.1-0.2v18.75h3.5v1.25
		c-2.95,0-5.9-0.15-8.8,0.4V39.92z"/>
	<path d="M159.098,43.92v-1.25h3.65v-17.3h-3.65v-1.25c2.95,0.1,6-0.1,9.05-0.2v18.75h3.699v1.25H159.098z M165.048,17.72
		c-1.55,0-2.7-1.55-2.7-3c0-1.35,1.35-2.7,2.7-2.7c1.45,0,2.95,1.2,2.95,2.7C167.998,16.42,166.748,17.72,165.048,17.72z"/>
	<path d="M180.198,37.32c0,4.75,1.101,6.35,4.4,6.35c3.6,0,6-2.5,6.899-6h1.15c-0.7,4.35-4.1,7-8.35,7
		c-6.101,0-10.2-4.85-9.95-10.85c0.1-2.45,1.45-5.8,3.35-7.45c2.05-1.8,4.3-2.55,7.05-2.55c3,0,7.45,1.35,7.45,5.1
		c0,1.35-1.05,2.9-2.5,2.9c-1.55,0-3.1-0.65-3.1-2.55c0-1.5,1.55-1.8,1.55-2.7c0-1.4-2.7-1.75-3.5-1.75c-4.85,0-4.45,4.95-4.45,8.5
		V37.32z"/>
	<path d="M196.098,43.92v-1.25h3.2v-30.9h-3.601v-1.25c3.051,0.1,6.051-0.2,9-0.75v32.9h3.101v1.25H196.098z M209.048,24.12h10.75
		v1.25h-4.4l-5.5,5.3l9.4,12h1.95v1.25h-11.15v-1.25h2.85l-7.649-9.75l7.899-7.55h-4.149V24.12z"/>
	<path d="M235.697,43.92v-1.25h4.95v-30.9h-4.95v-1.25h15.351c5.5,0,13.399,0.85,13.399,8.05c0,5.1-5.25,7.3-9.55,7.95v0.1
		c4.9,0.35,10.7,2.9,10.7,8.6c0,4.4-3.05,6.75-6.55,7.9c-3.65,1.2-8.301,0.8-11.801,0.8H235.697z M247.048,26.021h4.449
		c3.801,0,6.15-1.75,6.15-7.45c0-8.05-4.4-6.65-10.6-6.8V26.021z M247.048,42.67h6.3c4.35,0,5.1-4.2,5.1-7.7
		c0-4.7-1.55-7.65-6.649-7.7h-4.75V42.67z"/>
	<path d="M278.447,29.47c1.6-2.75,3.35-5.65,7-5.65c1.95,0,4,1,4,3.25c0,1.95-1.351,2.8-3.15,2.8c-1.2,0-2.399-1.05-2.399-2.3
		c0-0.2,0.05-0.5,0.1-0.75c0.15-0.8,0.2-1.1-0.35-1.1c-0.95,0-1.45,0.5-2.101,1.15c-1.899,1.9-3.1,4.6-3.1,11.15v4.65h4.5v1.25
		h-12.851v-1.25h2.95v-17.3h-3.3v-1.25c2.6,0.1,5.65-0.1,8.7-0.2V29.47z"/>
	<path d="M302.946,23.82c5.65,0,10.5,4.95,10.5,10.55c0,5.6-4.85,10.3-10.5,10.3s-10.5-4.7-10.5-10.3
		C292.446,28.771,297.296,23.82,302.946,23.82z M302.946,24.82c-4.9,0-4.55,3.9-4.55,9.55c0,6.5,0.1,9.3,4.55,9.3s4.55-2.8,4.55-9.3
		C307.496,28.72,307.847,24.82,302.946,24.82z"/>
	<path d="M315.696,24.12h11.3v1.25h-3.35l4.3,12.25l5-13.5h1.4l5.3,13.1l4.1-11.85h-3.399v-1.25h7.95v1.25h-3l-6.45,19.3h-1.601
		l-5.55-13l-5,13h-1.55l-7-19.3h-2.45V24.12z"/>
	<path d="M358.646,28.62h0.101c1.6-3.1,3.85-4.8,7.45-4.8c6.649,0,6.1,4.65,6.1,9.6v9.25h3.15v1.25h-11.601v-1.25h3.15v-9
		c0-4.65,0.5-8.05-2.851-8.05c-2.149,0-4.1,2.3-4.85,4.15c-0.65,1.65-0.65,3.95-0.65,6.3v6.6h3.15v1.25h-11.85v-1.25h3.399v-17.3
		h-3.399v-1.25c2.55,0.1,5.6-0.1,8.699-0.2V28.62z"/>
	<path d="M4.95,71.771H0v-1.25h27.7l0.35,10.2H26.7c-0.7-3.3-1.45-6.8-4.75-8.3c-1.1-0.5-3.1-0.65-5.15-0.65h-5.45v14.35
		c4.8,0,7.35-0.75,7.6-6.1h1.4v13.95h-1.4c-0.45-5.55-2.2-6.75-7.6-6.6v15.3h4.95v1.25H0v-1.25h4.95V71.771z"/>
	<path d="M41.8,83.82c5.65,0,10.5,4.95,10.5,10.55c0,5.6-4.85,10.3-10.5,10.3s-10.5-4.7-10.5-10.3
		C31.3,88.771,36.15,83.82,41.8,83.82z M41.8,84.82c-4.9,0-4.55,3.9-4.55,9.55c0,6.5,0.1,9.3,4.55,9.3s4.55-2.8,4.55-9.3
		C46.35,88.72,46.7,84.82,41.8,84.82z"/>
	<path d="M55.25,103.92v-1.25h3.2l5.9-7.45l-6.9-9.85h-2.2v-1.25H66.2v1.25h-2.7l4.3,5.85l4.6-5.85h-3.3v-1.25h8.25v1.25H74
		l-5.35,6.95l7.4,10.35h2.1v1.25h-11v-1.25h2.7l-4.65-6.4l-5.1,6.4h3.45v1.25H55.25z"/>
	<path d="M109.75,92.37c0,2.9,0.35,7.55-0.85,10.1c-1.65,3.5-4.9,5.8-8.9,5.8c-1.85,0-2.85-0.2-4.5-1c-1.35-0.65-2.5-2.45-2.5-3.9
		c0-1.7,1.05-3.4,2.9-3.4c1.7,0,2.9,1.15,2.9,2.85c0,0.8-0.5,1.45-0.85,1.85c-0.25,0.35-0.65,0.7-0.6,1.3c0.1,1,2.1,1.05,2.7,1.05
		c2.7,0,3.3-2.25,3.3-4.5v-30.75H98v-1.25h16.6v1.25h-4.85V92.37z"/>
	<path d="M134.7,99.92h-0.15c-1.4,2.8-4.1,4.75-7.35,4.75c-4.8,0-6.05-2.5-6.05-4.85V85.37h-3.25v-1.25c2.5,0.1,5.55-0.1,8.55-0.2
		v15.55c0,2.05-0.15,3.6,2.4,3.6c1.85,0,5.85-2.05,5.85-8.05v-9.65h-3.8v-1.25c3.05,0.1,6.1-0.1,9.1-0.2v18.75h3.5v1.25
		c-2.95,0-5.9-0.15-8.8,0.4V99.92z"/>
	<path d="M154.2,88.72h0.1c1.25-3,3.55-4.9,6.95-4.9c2.75,0,4.85,1.5,5.75,4.15c1.45-2.45,3.6-4.15,6.5-4.15c6.55,0,6,4.05,6,9.2
		v9.65h3.2v1.25h-11.15v-1.25h2.65V89.32c0-1.4,0.25-3.7-2.101-3.7c-3.75,0-5.25,4.35-5.25,7.4v9.65h2.75v1.25h-10.65v-1.25h2.6
		V90.72c0-2.3,0.6-5.1-2.4-5.1c-2.45,0-4.95,3.8-4.95,7.5v9.55h2.75v1.25h-11.3v-1.25h3.25v-17.3h-3.45v-1.25
		c2.55,0.1,5.6-0.1,8.75-0.2V88.72z"/>
	<path d="M193.35,87.97h0.101c1.05-2.3,3.55-4.15,6.149-4.15c5.45,0,9.351,5.1,9.351,10.35c0,5.05-3.95,10.5-9.351,10.5
		c-2.699,0-5-1.05-6.149-3.55h-0.101v13.25h3.5v1.25h-12.5v-1.25h3.601v-29h-3.65v-1.25c2.95,0.1,6-0.1,9.05-0.2V87.97z M203,89.17
		c0-2.7-0.75-4.35-3.8-4.35c-2.95,0-5.851,3.85-5.851,5.75v6.5c0,3.25,2.351,6.6,5.75,6.6c2.5,0,3.9-1.25,3.9-3.8V89.17z"/>
	<path d="M214.649,103.92h-0.8v-7.15h1.351c0.5,3.55,2.55,6.9,6.35,6.9c2.2,0,4.55-1.5,4.55-4s-2.3-2.75-4.899-3.1
		c-5.15-0.7-7.101-2.8-7.101-6.65c0-3.8,2.601-6.1,6.3-6.1c1.75,0,3.5,0.55,4.9,1.6l0.8-1.3h0.851v5.9h-1.301
		c-0.3-2.7-2.449-5.2-5.25-5.2c-1.949,0-4.05,1.15-4.05,3.45c0,1.5,0.25,2.05,4.75,2.8c4.55,0.75,7.15,1.55,7.15,6.7
		c0,4.8-2.65,6.9-7.15,6.9c-1.649,0-3.8-0.95-5-2.1L214.649,103.92z"/>
	<path d="M245.699,86.37c0-8.25,7.25-16.6,15.6-16.6c8.351,0,15.551,8.35,15.551,16.6c0,9.15-5.65,18.3-15.551,18.3
		C251.399,104.67,245.699,95.521,245.699,86.37z M269.499,81.07c0-1.8-0.25-3.5-0.75-5c-1-3.05-3.05-5.05-7.45-5.05
		c-4.45,0-6.6,2-7.5,5.05c-0.45,1.5-0.75,3.2-0.75,5v10.9c0,1.95,0.101,3.85,0.55,5.6c0.9,3.45,3,5.85,7.7,5.85
		c4.75,0,6.8-2.4,7.7-5.85c0.45-1.75,0.5-3.65,0.5-5.6V81.07z"/>
	<path d="M291.749,84.12v1.25h-3.15l5,12.5l5.3-12.5h-3.45v-1.25h7.65v1.25h-2.7l-8.05,19.3h-1.3l-8.101-19.3h-2.55v-1.25H291.749z"
		/>
	<path d="M311.898,92.87v4c0,3.5,0.2,6.8,4.45,6.8c3.6,0,6.35-2.6,7.35-6h1.25c-1.3,4.85-4.75,7-9.6,7c-5.45,0-9.4-5.25-9.4-10.35
		c0-5.5,4.5-10.5,9.95-10.5c4.65,0,8.95,3.2,8.95,8.15c0,1.05-0.45,0.9-1.25,0.9H311.898z M319.198,91.62c0-3.35,0.851-6.8-3.6-6.8
		c-4.15,0-3.7,3.65-3.7,6.8H319.198z"/>
	<path d="M336.748,89.47c1.6-2.75,3.35-5.65,7-5.65c1.95,0,4,1,4,3.25c0,1.95-1.351,2.8-3.15,2.8c-1.2,0-2.399-1.05-2.399-2.3
		c0-0.2,0.05-0.5,0.1-0.75c0.15-0.8,0.2-1.1-0.35-1.1c-0.95,0-1.45,0.5-2.101,1.15c-1.899,1.9-3.1,4.6-3.1,11.15v4.65h4.5v1.25
		h-12.851v-1.25h2.95v-17.3h-3.3v-1.25c2.6,0.1,5.65-0.1,8.7-0.2V89.47z"/>
	<path d="M7,163.921v-1.25h5.25v-30.9c-7.05-0.35-9.2,3.05-10.1,9.45h-1.6l0.55-10.7h28.65l0.55,10.7h-1.55
		c-0.9-6.4-3.05-9.8-10.1-9.45v30.9h5.25v1.25H7z"/>
	<path d="M33.399,163.921v-1.25h3.3v-30.9h-3.6v-1.25c3.05,0.101,6.05-0.2,9-0.75v18.851h0.1c1.25-3,3.85-4.8,7.2-4.8
		c1.95,0,5.45,0.699,5.95,3.05c0.5,2.45,0.45,5.55,0.45,8.05v7.75h3.15v1.25h-11.6v-1.25h3.15v-9c0-4.65,0.5-8.2-2.85-8.2
		c-2.15,0-4.1,2.45-4.85,4.3c-0.65,1.65-0.65,3.95-0.65,6.301v6.6h3v1.25H33.399z"/>
	<path d="M67.449,152.871v4c0,3.5,0.2,6.8,4.45,6.8c3.6,0,6.35-2.6,7.35-6h1.25c-1.3,4.85-4.75,7-9.6,7c-5.45,0-9.4-5.25-9.4-10.35
		c0-5.5,4.5-10.5,9.95-10.5c4.65,0,8.95,3.199,8.95,8.149c0,1.05-0.45,0.9-1.25,0.9H67.449z M74.75,151.621
		c0-3.351,0.85-6.8-3.6-6.8c-4.15,0-3.7,3.649-3.7,6.8H74.75z"/>
	<path d="M95.749,163.921v-1.25h4.95v-30.9h-4.95v-1.25h16.55v1.25h-5.2v30.9h6.55c6.35,0,8.6-4.25,8.8-10h1.55l-0.5,11.25H95.749z"
		/>
	<path d="M140.148,146.621c0-1.3-2.45-1.8-3.3-1.8c-1.9,0-4.25,0.949-3.5,1.899c0.3,0.4,0.7,1.45,0.7,2.4c0,1.3-1.25,2.2-2.4,2.2
		c-1.4,0-2.6-0.75-2.6-2.351c0-3.8,4.9-5.149,7.95-5.149c2.15,0,4.45,0.35,6.4,1.35c1.4,0.7,1.85,1.5,1.85,3.05v13.3
		c0,0.65,0.6,0.95,1.2,0.95c0.6,0,1.35-0.75,1.75-1.149l0.6,0.699c-1.3,1.601-2.65,2.65-4.75,2.65c-2.2,0-3.6-1.35-3.9-3.55
		c-1.8,2.2-4.5,3.55-7.3,3.55c-3,0-5.2-1.65-5.2-4.85c0-5.95,8-7.2,12.5-6.95V146.621z M140.148,153.921c-3.1,0-7.25,0.4-7.25,4.45
		c0,2.2,0.9,3.85,3.25,3.85c1.75,0,3.05-1.35,3.65-2.95c0.3-0.75,0.35-1.649,0.35-2.6V153.921z"/>
	<path d="M152.798,144.121h16.85v1.5l-11.7,17.05h4.05c5.15,0,5.65-2.7,6.2-7.25h1.4v8.5h-17.95v-1.35l11.8-17.2
		c-4,0-6.35-0.65-8.3,3.05c-0.55,1.05-0.8,2.25-1.05,3.45h-1.3V144.121z"/>
	<path d="M175.748,145.371h-2.45v-1.25h11.45v1.25h-3.2l5.55,12.149l4.75-12.149h-3.6v-1.25h7.85v1.25h-2.75l-8.8,22.55
		c-1.05,2.65-3.05,7.7-6.4,7.7c-1.399,0-2.75-1.15-2.75-2.55c0-1.45,1-2.551,2.4-2.551c1.25,0,1.7,0.301,2.45,1.2
		c0.35,0.45,0.5,1.4,2.1-2.2c0.85-1.85,1.65-3.75,2.2-5.6L175.748,145.371z"/>
	<path d="M211.197,130.521h13.75c5.5,0,8.2,0.65,10.801,2.25c5.2,3.2,7.7,8.45,7.7,14.45c0,5.8-2.7,11.8-7.95,14.7
		c-3.801,2.1-8.101,2-12.25,2h-12.051v-1.25h4.9v-30.9h-4.9V130.521z M222.498,162.671c6.35,0,10.699,0.4,12.85-6.15
		c1.1-3.35,1.25-7.35,1.25-10.55c0-6.399-1.25-10.45-2.75-11.9c-2.05-2-5.6-2.3-11.35-2.3V162.671z"/>
	<path d="M258.447,143.821c5.65,0,10.5,4.949,10.5,10.55c0,5.6-4.85,10.3-10.5,10.3s-10.5-4.7-10.5-10.3
		C247.947,148.771,252.797,143.821,258.447,143.821z M258.447,144.821c-4.9,0-4.55,3.899-4.55,9.55c0,6.5,0.1,9.3,4.55,9.3
		s4.55-2.8,4.55-9.3C262.997,148.721,263.348,144.821,258.447,144.821z"/>
	<path d="M285.747,161.021c2.351,0,4.101-0.35,5.5,1.601c0.75,1.05,0.95,2.35,0.95,3.6c0,6.45-5.4,9.4-11.2,9.4
		c-3.399,0-8.2-1.601-8.2-5.75c0-1.95,1.5-3.55,3.2-4.2c-2-0.75-3.25-2.3-3.25-4.55c0-3,1.851-4.351,4.5-5.101
		c-1.899-1.199-3.35-2.85-3.35-5.199c0-4.4,3.5-7,7.6-7c2.3,0,4,0.75,5.7,2.25c1-1.2,1.9-2.45,3.65-2.45
		c1.199,0,2.199,0.8,2.199,2.05c0,1.2-0.6,1.8-1.8,1.8s-1.649-1.7-2.05-1.7c-0.55,0-1,0.7-1.35,1.051c0.85,1,1.199,2.3,1.199,3.699
		c0,2.25-1.199,4.65-3.199,5.801c-2.051,1.149-4.601,0.8-6.7,0.8c-1.45,0-4.8,0.1-4.8,2.25c0,1.25,0.899,1.649,2,1.649H285.747z
		 M277.997,165.721c-1.75,0-2,2.4-2,3.75c0,3.15,2.2,4.9,5.2,4.9c4.05,0,7.8-1.2,9.1-5.55c0.851-2.851-1.199-3.101-3.8-3.101
		H277.997z M278.747,153.821c0,1.8,0.75,2.5,2.65,2.5c2.149,0,2.85-0.45,2.85-2.5v-6.95c0-1.65-0.95-2.05-2.649-2.05
		c-2.101,0-2.851,1-2.851,2.05V153.821z"/>
	<path d="M304.547,161.471c0,1.75-1.601,3.2-3.15,3.2c-1.6,0-3.25-1.45-3.25-3.2c0-1.8,1.65-3.2,3.25-3.2
		C302.946,158.271,304.547,159.671,304.547,161.471z"/>
</g>
<g>
	<path d="M453.751,93.959c12.689,0,22.14-1.89,29.699,8.64c4.051,5.67,5.131,12.69,5.131,19.44c0,34.83-29.16,50.759-60.479,50.759
		c-18.36,0-44.279-8.64-44.279-31.05c0-10.53,8.1-19.169,17.279-22.68c-10.8-4.05-17.55-12.42-17.55-24.569
		c0-16.2,9.99-23.49,24.3-27.54c-10.26-6.479-18.09-15.39-18.09-28.08c0-23.76,18.899-37.799,41.04-37.799
		c12.419,0,21.6,4.05,30.779,12.15C466.98,6.75,471.841,0,481.291,0c6.479,0,11.88,4.32,11.88,11.07c0,6.48-3.24,9.72-9.721,9.72
		c-6.479,0-8.909-9.18-11.069-9.18c-2.97,0-5.4,3.78-7.29,5.67c4.59,5.4,6.48,12.42,6.48,19.98c0,12.149-6.48,25.109-17.28,31.319
		c-11.07,6.21-24.84,4.32-36.18,4.32c-7.83,0-25.92,0.54-25.92,12.15c0,6.75,4.86,8.91,10.8,8.91H453.751z M411.901,119.338
		c-9.449,0-10.8,12.96-10.8,20.25c0,17.01,11.88,26.459,28.08,26.459c21.869,0,42.119-6.48,49.139-29.97
		c4.591-15.39-6.479-16.74-20.52-16.74H411.901z M415.951,55.079c0,9.72,4.05,13.5,14.311,13.5c11.609,0,15.39-2.43,15.39-13.5
		V17.55c0-8.91-5.13-11.07-14.31-11.07c-11.341,0-15.391,5.4-15.391,11.07V55.079z"/>
</g>
<g>
	<path d="M9.75,190.938c0-0.52-0.98-0.72-1.32-0.72c-0.76,0-1.7,0.38-1.4,0.76c0.12,0.16,0.28,0.58,0.28,0.96
		c0,0.52-0.5,0.88-0.96,0.88c-0.56,0-1.04-0.3-1.04-0.94c0-1.52,1.96-2.06,3.18-2.06c0.86,0,1.78,0.14,2.56,0.54
		c0.56,0.28,0.74,0.6,0.74,1.22v5.32c0,0.26,0.24,0.38,0.48,0.38c0.24,0,0.54-0.3,0.7-0.46l0.24,0.28c-0.52,0.64-1.06,1.06-1.9,1.06
		c-0.88,0-1.44-0.54-1.56-1.42c-0.72,0.88-1.8,1.42-2.92,1.42c-1.2,0-2.08-0.66-2.08-1.94c0-2.38,3.2-2.88,5-2.78V190.938z
		 M9.75,193.858c-1.24,0-2.9,0.16-2.9,1.78c0,0.88,0.36,1.54,1.3,1.54c0.7,0,1.22-0.54,1.46-1.18c0.12-0.3,0.14-0.66,0.14-1.04
		V193.858z"/>
	<path d="M15.51,184.999h-1.44v-0.5c1.22,0.04,2.42-0.08,3.6-0.3v7.1c0.52-0.88,1.36-1.48,2.38-1.48c2.26,0,3.86,2.12,3.86,4.26
		c0,2.08-1.56,4.08-3.8,4.08c-0.98,0-1.92-0.58-2.44-1.38v1.24c-1.22-0.22-2.42-0.16-3.6-0.16v-0.5h1.44V184.999z M21.55,192.079
		c0-0.98-0.46-1.86-1.52-1.86c-1.26,0-2.26,1.14-2.36,2.38v2.8c0,1.24,1.12,2.36,2.34,2.36c1.14,0,1.54-0.86,1.54-1.88V192.079z"/>
	<path d="M27.991,195.218c0,1.9,0.44,2.54,1.76,2.54c1.44,0,2.4-1,2.76-2.4h0.46c-0.28,1.74-1.64,2.8-3.34,2.8
		c-2.44,0-4.08-1.94-3.98-4.34c0.04-0.98,0.58-2.32,1.34-2.98c0.82-0.72,1.72-1.02,2.82-1.02c1.2,0,2.98,0.54,2.98,2.04
		c0,0.54-0.42,1.16-1,1.16c-0.62,0-1.24-0.26-1.24-1.02c0-0.6,0.62-0.72,0.62-1.08c0-0.56-1.08-0.7-1.4-0.7
		c-1.94,0-1.78,1.98-1.78,3.4V195.218z"/>
	<path d="M40.83,196.499h-0.04c-0.48,1.06-1.42,1.66-2.68,1.66c-1.06,0-1.6-0.38-2.36-1.04c-0.8-0.7-1.2-2.04-1.2-3.08
		c0-1.98,1.74-4.22,3.82-4.22c1.3,0,2.18,0.76,2.42,1.7h0.04v-6.52h-1.44v-0.5c1.22,0.04,2.42-0.08,3.6-0.3v13.16h1.44v0.5
		c-1.16,0-2.32-0.06-3.6,0.16V196.499z M36.99,195.958c0,0.96,0.34,1.8,1.44,1.8c1.22,0,2.4-1.3,2.4-2.5v-2.12
		c0-1.26-0.82-2.92-2.36-2.92c-1.32,0-1.48,1.04-1.48,2.18V195.958z"/>
	<path d="M47.89,193.438v1.6c0,1.4,0.08,2.72,1.78,2.72c1.44,0,2.54-1.04,2.94-2.4h0.5c-0.52,1.94-1.9,2.8-3.84,2.8
		c-2.18,0-3.76-2.1-3.76-4.14c0-2.2,1.8-4.2,3.98-4.2c1.86,0,3.58,1.28,3.58,3.26c0,0.42-0.18,0.36-0.5,0.36H47.89z M50.81,192.938
		c0-1.34,0.34-2.72-1.44-2.72c-1.66,0-1.48,1.46-1.48,2.72H50.81z"/>
	<path d="M57.75,189.938h1.9v0.5h-1.9v6.92h1.72v0.5h-5.44v-0.5h1.56v-6.92h-1.6v-0.5h1.6c0-2,0.38-4.7,2.62-5.54
		c0.32-0.12,0.66-0.2,1.02-0.2c0.92,0,2.02,0.5,2.02,1.58c0,0.62-0.46,1.04-1.08,1.04c-0.54,0-0.94-0.36-0.94-0.9
		c0-0.38,0.22-0.62,0.52-0.82c0.16-0.1,0-0.5-0.54-0.5c-0.94,0-1.46,1.54-1.46,2.22V189.938z"/>
	<path d="M66.33,196.698c0.94,0,1.64-0.14,2.2,0.64c0.3,0.42,0.38,0.94,0.38,1.44c0,2.58-2.16,3.76-4.48,3.76
		c-1.36,0-3.28-0.64-3.28-2.3c0-0.78,0.6-1.42,1.28-1.68c-0.8-0.3-1.3-0.92-1.3-1.82c0-1.2,0.74-1.74,1.8-2.04
		c-0.76-0.48-1.34-1.14-1.34-2.08c0-1.76,1.4-2.8,3.04-2.8c0.92,0,1.6,0.3,2.28,0.9c0.4-0.48,0.76-0.98,1.46-0.98
		c0.48,0,0.88,0.32,0.88,0.82c0,0.48-0.24,0.72-0.72,0.72s-0.66-0.68-0.82-0.68c-0.22,0-0.4,0.28-0.54,0.42
		c0.34,0.4,0.48,0.92,0.48,1.48c0,0.9-0.48,1.86-1.28,2.32c-0.82,0.46-1.84,0.32-2.68,0.32c-0.58,0-1.92,0.04-1.92,0.9
		c0,0.5,0.36,0.66,0.8,0.66H66.33z M63.229,198.579c-0.7,0-0.8,0.96-0.8,1.5c0,1.26,0.88,1.96,2.08,1.96c1.62,0,3.12-0.48,3.64-2.22
		c0.34-1.14-0.48-1.24-1.52-1.24H63.229z M63.53,193.818c0,0.72,0.3,1,1.06,1c0.86,0,1.14-0.18,1.14-1v-2.78
		c0-0.66-0.38-0.82-1.06-0.82c-0.84,0-1.14,0.4-1.14,0.82V193.818z"/>
	<path d="M69.81,197.858v-0.5h1.32v-12.36h-1.44v-0.5c1.22,0.04,2.42-0.08,3.6-0.3v7.54h0.04c0.5-1.2,1.54-1.92,2.88-1.92
		c0.78,0,2.18,0.28,2.38,1.22c0.2,0.98,0.18,2.22,0.18,3.22v3.1h1.26v0.5h-4.64v-0.5h1.26v-3.6c0-1.86,0.2-3.28-1.14-3.28
		c-0.86,0-1.64,0.98-1.94,1.72c-0.26,0.66-0.26,1.58-0.26,2.52v2.64h1.2v0.5H69.81z"/>
	<path d="M80.649,197.858v-0.5h1.46v-6.92h-1.46v-0.5c1.18,0.04,2.4-0.04,3.62-0.08v7.5h1.48v0.5H80.649z M83.029,187.378
		c-0.62,0-1.08-0.62-1.08-1.2c0-0.54,0.54-1.08,1.08-1.08c0.58,0,1.18,0.48,1.18,1.08C84.209,186.858,83.709,187.378,83.029,187.378
		z"/>
	<path d="M90.769,194.278c0,1.38,0.04,2.78-0.06,4.16c-0.14,2.04-1.1,4.1-3.38,4.1c-0.88,0-1.72-0.62-1.72-1.54
		c0-0.46,0.38-1.04,0.88-1.04c0.56,0,1,0.24,1,0.84c0,0.16-0.04,0.3-0.1,0.42c-0.16,0.32-0.26,0.72,0.22,0.8
		c0.48,0.08,0.74-0.32,0.84-0.72c0.24-0.94,0.16-1.92,0.16-2.88v-7.98h-1.46v-0.5c1.18,0.04,2.4-0.04,3.62-0.08V194.278z
		 M89.589,187.318c-0.62,0-1.08-0.62-1.08-1.2c0-0.54,0.54-1.08,1.08-1.08c0.58,0,1.18,0.48,1.18,1.08
		C90.769,186.798,90.269,187.318,89.589,187.318z"/>
	<path d="M93.229,197.858v-0.5h1.28v-12.36h-1.44v-0.5c1.22,0.04,2.42-0.08,3.6-0.3v13.16h1.24v0.5H93.229z M98.409,189.938h4.3v0.5
		h-1.76l-2.2,2.12l3.76,4.8h0.78v0.5h-4.46v-0.5h1.14l-3.06-3.9l3.16-3.02h-1.66V189.938z"/>
	<path d="M103.969,197.858v-0.5h1.5v-12.36h-1.44v-0.5c1.22,0.04,2.42-0.08,3.6-0.3v13.16h1.46v0.5H103.969z"/>
	<path d="M113.149,191.778h0.04c0.5-1.2,1.42-1.96,2.78-1.96c1.1,0,1.94,0.6,2.3,1.66c0.58-0.98,1.44-1.66,2.6-1.66
		c2.62,0,2.4,1.62,2.4,3.68v3.86h1.28v0.5h-4.46v-0.5h1.06v-5.34c0-0.56,0.1-1.48-0.84-1.48c-1.5,0-2.1,1.74-2.1,2.96v3.86h1.1v0.5
		h-4.26v-0.5h1.04v-4.78c0-0.92,0.24-2.04-0.96-2.04c-0.98,0-1.98,1.52-1.98,3v3.82h1.1v0.5h-4.52v-0.5h1.3v-6.92h-1.38v-0.5
		c1.02,0.04,2.24-0.04,3.5-0.08V191.778z"/>
	<path d="M128.809,191.738h0.04c0.64-1.24,1.54-1.92,2.98-1.92c2.66,0,2.44,1.86,2.44,3.84v3.7h1.26v0.5h-4.64v-0.5h1.26v-3.6
		c0-1.86,0.2-3.22-1.14-3.22c-0.86,0-1.64,0.92-1.94,1.66c-0.26,0.66-0.26,1.58-0.26,2.52v2.64h1.26v0.5h-4.74v-0.5h1.36v-6.92
		h-1.36v-0.5c1.02,0.04,2.24-0.04,3.48-0.08V191.738z"/>
	<path d="M140.989,189.818c2.26,0,4.2,1.98,4.2,4.22c0,2.24-1.94,4.12-4.2,4.12s-4.2-1.88-4.2-4.12
		C136.789,191.798,138.729,189.818,140.989,189.818z M140.989,190.218c-1.96,0-1.82,1.56-1.82,3.82c0,2.6,0.04,3.72,1.82,3.72
		s1.82-1.12,1.82-3.72C142.809,191.778,142.949,190.218,140.989,190.218z"/>
	<path d="M149.929,191.479h0.04c0.42-0.92,1.42-1.66,2.46-1.66c2.18,0,3.74,2.04,3.74,4.14c0,2.02-1.58,4.2-3.74,4.2
		c-1.08,0-2-0.42-2.46-1.42h-0.04v5.3h1.4v0.5h-5v-0.5h1.44v-11.6h-1.46v-0.5c1.18,0.04,2.4-0.04,3.62-0.08V191.479z
		 M153.789,191.958c0-1.08-0.3-1.74-1.52-1.74c-1.18,0-2.34,1.54-2.34,2.3v2.6c0,1.3,0.94,2.64,2.3,2.64c1,0,1.56-0.5,1.56-1.52
		V191.958z"/>
	<path d="M166.369,202.039h1.44v0.5h-5v-0.5h1.4v-5.32c-0.62,0.96-1.36,1.44-2.5,1.44c-2.14,0-3.74-2.18-3.74-4.2
		c0-2.08,1.56-4.14,3.74-4.14c1.04,0,2.06,0.76,2.46,1.68h0.04v-1.64c1.22,0.04,2.44,0.12,3.62,0.08v0.5h-1.46V202.039z
		 M160.31,195.539c0,1.1,0.28,2.22,1.6,2.22c1.36,0,2.3-1.36,2.3-2.64v-1.2c0-1.5-0.32-3.7-2.58-3.7c-1.44,0-1.32,2.36-1.32,2.94
		V195.539z"/>
	<path d="M172.31,192.079c0.64-1.1,1.34-2.26,2.8-2.26c0.78,0,1.6,0.4,1.6,1.3c0,0.78-0.54,1.12-1.26,1.12
		c-0.48,0-0.96-0.42-0.96-0.92c0-0.08,0.02-0.2,0.04-0.3c0.06-0.32,0.08-0.44-0.14-0.44c-0.38,0-0.58,0.2-0.84,0.46
		c-0.76,0.76-1.24,1.84-1.24,4.46v1.86h1.8v0.5h-5.14v-0.5h1.18v-6.92h-1.32v-0.5c1.04,0.04,2.26-0.04,3.48-0.08V192.079z"/>
	<path d="M178.449,197.858h-0.32v-2.86h0.54c0.2,1.42,1.02,2.76,2.54,2.76c0.88,0,1.82-0.6,1.82-1.6s-0.92-1.1-1.96-1.24
		c-2.06-0.28-2.84-1.12-2.84-2.66c0-1.52,1.04-2.44,2.52-2.44c0.7,0,1.4,0.22,1.96,0.64l0.32-0.52h0.34v2.36h-0.52
		c-0.12-1.08-0.98-2.08-2.1-2.08c-0.78,0-1.62,0.46-1.62,1.38c0,0.6,0.1,0.82,1.9,1.12c1.82,0.3,2.86,0.62,2.86,2.68
		c0,1.92-1.06,2.76-2.86,2.76c-0.66,0-1.52-0.38-2-0.84L178.449,197.858z"/>
	<path d="M186.688,187.858c0.72,0,1.44-0.08,2.16-0.12v2.44h1.9v0.6h-1.9v5.5c0,0.64,0.02,1.1,0.78,1.1c0.64,0,1.02-0.5,1.22-1.06
		l0.4,0.2c-0.42,1.12-1.28,1.64-2.44,1.64c-1.82,0-2.12-0.62-2.12-1.72v-5.66h-1.28v-0.6h1.28V187.858z"/>
	<path d="M198.709,196.258h-0.06c-0.56,1.12-1.64,1.9-2.94,1.9c-1.92,0-2.42-1-2.42-1.94v-5.78h-1.3v-0.5
		c1,0.04,2.22-0.04,3.42-0.08v6.22c0,0.82-0.06,1.44,0.96,1.44c0.74,0,2.34-0.82,2.34-3.22v-3.86h-1.52v-0.5
		c1.22,0.04,2.44-0.04,3.64-0.08v7.5h1.4v0.5c-1.18,0-2.36-0.06-3.52,0.16V196.258z"/>
	<path d="M207.628,189.938v0.5h-1.26l2,5l2.12-5h-1.38v-0.5h3.06v0.5h-1.08l-3.22,7.72h-0.52l-3.24-7.72h-1.02v-0.5H207.628z"/>
	<path d="M212.769,189.938h4.52v0.5h-1.34l1.72,4.9l2-5.4h0.56l2.12,5.24l1.64-4.74h-1.36v-0.5h3.18v0.5h-1.2l-2.58,7.72h-0.64
		l-2.22-5.2l-2,5.2h-0.62l-2.8-7.72h-0.98V189.938z"/>
	<path d="M226.388,197.858v-0.5h1.28l2.36-2.98l-2.76-3.94h-0.88v-0.5h4.38v0.5h-1.08l1.72,2.34l1.84-2.34h-1.32v-0.5h3.3v0.5h-1.34
		l-2.14,2.78l2.96,4.14h0.84v0.5h-4.4v-0.5h1.08l-1.86-2.56l-2.04,2.56h1.38v0.5H226.388z"/>
	<path d="M237.368,190.438h-0.98v-0.5h4.58v0.5h-1.28l2.22,4.86l1.9-4.86h-1.44v-0.5h3.14v0.5h-1.1l-3.52,9.02
		c-0.42,1.06-1.22,3.08-2.56,3.08c-0.56,0-1.1-0.46-1.1-1.02c0-0.58,0.4-1.02,0.96-1.02c0.5,0,0.68,0.12,0.98,0.48
		c0.14,0.18,0.2,0.56,0.84-0.88c0.34-0.74,0.66-1.5,0.88-2.24L237.368,190.438z"/>
	<path d="M247.068,189.938h6.74v0.6l-4.68,6.82h1.62c2.06,0,2.26-1.08,2.48-2.9h0.56v3.4h-7.18v-0.54l4.72-6.88
		c-1.6,0-2.54-0.26-3.32,1.22c-0.22,0.42-0.32,0.9-0.42,1.38h-0.52V189.938z"/>
	<path d="M259.809,184.958c2.38,0,4.34,3.36,4.34,6.5c0,4.52-2.48,6.7-4.34,6.7c-1.86,0-4.32-2.18-4.32-6.7
		C255.488,188.318,257.428,184.958,259.809,184.958z M257.928,193.598c0,1.4-0.14,4.06,1.881,4.06c2.02,0,1.899-2.66,1.899-4.06
		v-4.36c0-3.24-1.02-3.84-1.899-3.84c-0.881,0-1.881,0.6-1.881,3.84V193.598z"/>
	<path d="M269.049,186.499c0-0.86-0.18-0.82-1.38-0.82h-1.12v-0.5h1.16c1.16,0,2.34-0.14,3.5-0.22v12.4h2.319v0.5h-6.859v-0.5h2.38
		V186.499z"/>
	<path d="M283.469,194.158l-0.1,3.7h-7.9v-1.3c1.38-1.3,4.92-4.26,5.42-5.92c0.18-0.6,0.3-1.18,0.3-2c0-1.44-0.74-2.98-2.359-2.98
		c-1.04,0-2.32,0.78-2.32,1.92c0,0.12,0.1,0.36,0.52,0.24c0.141-0.04,0.28-0.08,0.38-0.08c0.641,0,1.101,0.3,1.101,1
		c0,0.8-0.48,1.16-1.24,1.16c-0.899,0-1.38-0.82-1.38-1.64c0-2.06,1.9-3.3,3.82-3.3c2,0,3.859,1.2,3.859,3.36
		c0,1.1-0.359,2.08-2.02,3.54l-4.74,4.18h5c0.94,0,1.22-0.14,1.22-1.88H283.469z"/>
	<path d="M289.488,191.099c2.021,0.18,4.261,0.94,4.261,3.32c0,2.54-2.48,3.74-4.721,3.74c-2.06,0-3.38-1.1-3.38-2.38
		c0-0.7,0.561-1.28,1.26-1.28c0.601,0,1.061,0.48,1.061,1.06c0,0.64-0.34,0.76-0.8,1.12c-0.5,0.36,0.42,1.02,1.62,1.02
		c1.92,0,2.58-1.46,2.58-3.18c0-1.4-0.44-2.62-1.961-2.98c-0.739-0.18-1.319-0.16-1.699-0.14c-0.4,0.02-0.62,0.02-0.62-0.24
		c0-0.4,0.24-0.26,1.78-0.36c1.479-0.1,2.039-1.82,2.039-3.06c0-1.36-0.42-2.34-1.92-2.34c-0.56,0-1.819,0.52-1.3,0.92
		c0.44,0.3,0.72,0.5,0.72,1.1c0,0.58-0.52,0.9-1.039,0.9c-0.66,0-1.08-0.54-1.08-1.18c0-1.52,1.819-2.18,3.1-2.18
		c1.72,0,3.76,0.9,3.76,2.88s-1.979,2.9-3.66,3.24V191.099z"/>
	<path d="M302.249,194.458v2.9h1.62v0.5h-5.461v-0.5h1.761v-2.9h-5.101v-0.58l5.82-8.92h1.36v8.94h1.52v-1.48h0.521v3.54h-0.521
		v-1.5H302.249z M300.169,193.898v-6.74l-4.4,6.74H300.169z"/>
	<path d="M312.988,184.398c0,1.04-0.159,1.66-0.659,2c-0.5,0.36-1.341,0.44-2.681,0.44h-2.26l-0.16,3.68
		c0.72-0.24,1.48-0.32,2.24-0.32c3.2,0,4.439,2.12,4.439,3.88c0,2.06-1.42,4.08-4.96,4.08c-1.5,0-3.079-0.76-3.079-2.46
		c0-0.64,0.52-1.2,1.14-1.2c0.72,0,1.1,0.46,1.1,1.18c0,0.64-0.46,0.74-0.819,1.02c-0.381,0.28-0.08,1,1.68,1
		c2.1,0,2.58-1.8,2.58-3.58c0-1.8-0.7-3.36-2.72-3.36c-0.761,0-1.261,0.16-1.561,0.32c-0.28,0.14-0.66,0.34-0.64,0.08l0.22-4.92
		c0.04-1.12,0.34-1.28,0.96-1.28h4.08c0.4,0,0.6-0.16,0.68-0.56H312.988z"/>
	<path d="M323.429,185.418c-2.96,0.46-4.94,2.4-5.3,5.38c0.68-0.56,1.52-1,2.42-1c2.3,0,3.74,1.98,3.74,4.14
		c0,2.46-2.021,4.22-4.4,4.22c-2.82,0-4.26-2.86-4.26-5.34c0-4.22,3.68-7.64,7.8-7.86V185.418z M320.169,190.318
		c-0.78,0-1.58,0.62-2.021,1.24c-0.22,0.28-0.1,2.48-0.1,2.88c0,2.24,0.5,3.36,1.979,3.36c0.98,0,1.86-0.26,1.86-3.84
		C321.889,192.658,322.028,190.318,320.169,190.318z"/>
	<path d="M326.929,184.958h7.12c0.04,0.4-0.2,0.74-0.38,1.1l-1.74,3.68c-1.24,2.64-1.521,4.44-0.98,5.88
		c0.16,0.44,0.28,0.8,0.28,1.14c0,0.78-0.439,1.4-1.28,1.4c-0.979,0-1.34-0.78-1.34-1.66c0-0.92,3.521-8.24,4.04-9.66h-3.96
		c-2,0-1.7-0.28-2.34,1.88h-0.54L326.929,184.958z"/>
	<path d="M340.528,191.238c1.82,0.28,3.66,1.42,3.66,3.48c0,2.54-2.399,3.44-4.34,3.44c-2.6,0-4.32-1.34-4.32-3.44
		s1.98-3.1,3.58-3.48v-0.04c-1.5-0.4-3.2-1.14-3.2-3.1c0-2.14,1.801-3.14,3.94-3.14c1.88,0,3.98,0.92,3.98,3.14
		c0,1.9-1.7,2.68-3.301,3.1V191.238z M339.849,191.499c-1.76,0-1.96,1.92-1.96,3.14c0,1.5,0.12,3.08,1.96,3.08
		c1.44,0,1.98-0.78,1.98-3.08C341.829,192.958,341.608,191.499,339.849,191.499z M339.849,185.378c-1.62,0-1.62,1.58-1.62,2.86
		c0,2.2,0.58,2.64,1.62,2.64c1.54,0,1.66-1.42,1.66-2.64C341.509,185.718,341.009,185.378,339.849,185.378z"/>
	<path d="M346.389,197.718c2.96-0.46,4.96-2.34,5.3-5.36c-0.7,0.58-1.479,0.98-2.399,0.98c-2.021,0-3.761-1.66-3.761-4.14
		c0-2.28,2-4.24,4.28-4.24c2.9,0,4.38,2.78,4.38,5.38c0,4.22-3.68,7.66-7.8,7.82V197.718z M349.709,185.338
		c-0.86,0-1.78,0.22-1.78,4c0,1.24-0.06,3.5,1.72,3.5c0.601,0,1.96-0.76,2.04-1.38c0.08-0.72,0.12-1.4,0.12-2.12
		C351.809,185.579,350.809,185.338,349.709,185.338z"/>
	<path d="M361.329,202.539v-18.34h4.92v0.72h-3.301v16.9h3.301v0.72H361.329z"/>
	<path d="M374.108,202.539v-0.72h3.3v-16.9h-3.3v-0.72h4.92v18.34H374.108z"/>
	<path d="M391.148,184.738c-2.72,1.78-2.92,5.36-2.92,8.34c0,6.4,1.12,6.98,2.92,8.9v0.56c-2.86-2.2-4.72-5.44-4.72-9.12
		c0-3.84,2.159-7.7,4.72-9.22V184.738z"/>
	<path d="M398.088,184.198c2.56,1.52,4.72,5.38,4.72,9.22c0,3.68-1.86,6.92-4.72,9.12v-0.56c1.8-1.92,2.92-2.5,2.92-8.9
		c0-2.98-0.2-6.56-2.92-8.34V184.198z"/>
	<path d="M413.468,200.019c0,1.38,0.38,2.06,1.92,2.48v0.04c-0.98,0-1.82-0.02-2.62-0.56c-0.88-0.56-0.92-1.46-0.92-2.32v-3.96
		c0-0.64,0.02-1.08-0.5-1.64c-0.38-0.36-0.88-0.58-1.44-0.66v-0.06c1.66-0.32,1.94-0.94,1.94-2.4v-3.48c0-2.4,0.7-3.36,3.54-3.26
		v0.04c-1.48,0.4-1.92,1.18-1.92,2.5v3.64c0,1.5-0.24,2.64-2.101,2.96v0.06c1.78,0.32,2.101,1.22,2.101,2.64V200.019z"/>
	<path d="M424.607,196.039c0-1.42,0.32-2.32,2.101-2.64v-0.06c-1.86-0.32-2.101-1.46-2.101-2.96v-3.64c0-1.32-0.439-2.1-1.92-2.5
		v-0.04c2.841-0.1,3.54,0.86,3.54,3.26v3.48c0,1.46,0.28,2.08,1.94,2.4v0.06c-0.561,0.08-1.061,0.3-1.44,0.66
		c-0.52,0.56-0.5,1-0.5,1.64v3.96c0,0.86-0.04,1.76-0.92,2.32c-0.8,0.54-1.64,0.56-2.62,0.56v-0.04c1.54-0.42,1.92-1.1,1.92-2.48
		V196.039z"/>
	<path d="M435.507,198.158h-1.14l4.32-13.96h1.159L435.507,198.158z"/>
	<path d="M447.348,184.198h1.16l4.32,13.66h-1.141L447.348,184.198z"/>
	<path d="M470.007,198.198l-9.439-4.3v-1l9.439-4.34v1.1l-8.22,3.76l8.22,3.68V198.198z"/>
	<path d="M483.768,193.418l-8.2-3.76v-1.1l9.439,4.34v1l-9.439,4.3v-1.1L483.768,193.418z"/>
	<path d="M493.607,193.638c-0.301-1.94-0.32-2.62,0.319-3.66c0.301-0.46,1.24-1.42,1.641-1.64c0.439-0.24,1.2-1.14,1.2-1.88
		c0-1.2-1.181-1.82-2.261-1.82c-1.02,0-2,0.72-2,0.94c0,0.26,0.261,0.3,0.521,0.44c0.26,0.12,0.5,0.32,0.5,0.86
		c0,0.62-0.42,0.94-1.021,0.94c-0.76,0-1.04-0.54-1.04-1.22c0-1.28,1.46-2.4,3.101-2.4c1.88,0,3.439,1.32,3.439,3.26
		c0,1.76-1.14,2.7-2.399,3.68c-1.32,1.02-1.5,0.94-1.5,2.5H493.607z M495.107,196.878c0,0.7-0.641,1.28-1.261,1.28
		c-0.64,0-1.3-0.58-1.3-1.28c0-0.72,0.66-1.28,1.3-1.28C494.467,195.598,495.107,196.158,495.107,196.878z"/>
</g>
</svg>
