<?xml version="1.0" standalone="no"?>
<!DOCTYPE svg PUBLIC "-//W3C//DTD SVG 20010904//EN"
 "http://www.w3.org/TR/2001/REC-SVG-20010904/DTD/svg10.dtd">
<svg version="1.0" xmlns="http://www.w3.org/2000/svg"
 width="300.000000pt" height="61.000000pt" viewBox="0 0 300.000000 61.000000"
 preserveAspectRatio="xMidYMid meet">
<metadata>
Created by potrace 1.10, written by Peter Selinger 2001-2011
</metadata>
<g transform="translate(0.000000,61.000000) scale(0.100000,-0.100000)"
fill="#000000" stroke="none">
<path d="M2320 600 c0 -5 5 -10 11 -10 5 0 7 5 4 10 -3 6 -8 10 -11 10 -2 0
-4 -4 -4 -10z"/>
<path d="M1080 589 c0 -5 5 -7 10 -4 6 3 10 8 10 11 0 2 -4 4 -10 4 -5 0 -10
-5 -10 -11z"/>
<path d="M1175 579 c-11 -16 -1 -19 13 -3 7 8 8 14 3 14 -5 0 -13 -5 -16 -11z"/>
<path d="M1581 574 c0 -11 3 -14 6 -6 3 7 2 16 -1 19 -3 4 -6 -2 -5 -13z"/>
<path d="M1620 580 c0 -5 5 -10 10 -10 6 0 10 5 10 10 0 6 -4 10 -10 10 -5 0
-10 -4 -10 -10z"/>
<path d="M1750 579 c0 -5 5 -7 10 -4 6 3 10 8 10 11 0 2 -4 4 -10 4 -5 0 -10
-5 -10 -11z"/>
<path d="M2350 528 c0 -18 -3 -43 -6 -55 -4 -14 -2 -23 5 -23 6 0 11 7 11 15
0 20 10 19 26 -2 7 -10 16 -15 20 -11 4 4 1 14 -6 23 -10 12 -10 18 0 30 19
23 3 31 -21 9 -20 -18 -20 -18 -14 8 4 15 2 29 -4 32 -7 5 -11 -5 -11 -26z"/>
<path d="M2487 554 c-4 -4 -7 -29 -7 -56 0 -63 24 -61 28 2 3 41 -7 68 -21 54z"/>
<path d="M1254 541 c-2 -2 0 -9 3 -15 4 -6 6 -25 4 -42 -3 -36 10 -48 40 -39
16 5 20 14 18 39 -2 17 0 37 5 44 4 6 6 12 4 13 -13 3 -70 3 -74 0z m41 -41
c3 -5 1 -10 -4 -10 -6 0 -11 5 -11 10 0 6 2 10 4 10 3 0 8 -4 11 -10z m10 -30
c-3 -5 -10 -10 -16 -10 -5 0 -9 5 -9 10 0 6 7 10 16 10 8 0 12 -4 9 -10z"/>
<path d="M1413 543 c-7 -2 -13 -11 -13 -18 0 -7 -6 -16 -12 -19 -10 -5 -10 -7
0 -12 6 -3 12 -17 12 -30 0 -13 5 -24 10 -24 6 0 10 11 10 23 0 16 9 28 25 35
22 10 24 15 15 32 -11 20 -23 23 -47 13z m27 -29 c0 -8 -4 -12 -10 -9 -5 3
-10 10 -10 16 0 5 5 9 10 9 6 0 10 -7 10 -16z"/>
<path d="M1676 538 c-4 -12 -2 -86 3 -98 1 -3 6 5 11 18 12 28 30 29 30 0 0
-16 3 -19 11 -11 18 18 6 48 -19 47 -19 -1 -22 3 -18 22 6 24 -11 45 -18 22z"/>
<path d="M1820 540 c0 -5 5 -10 10 -10 6 0 10 5 10 10 0 6 -4 10 -10 10 -5 0
-10 -4 -10 -10z"/>
<path d="M1910 540 c0 -5 7 -10 15 -10 10 0 15 -10 15 -30 0 -20 -5 -30 -15
-30 -8 0 -15 -4 -15 -10 0 -5 15 -10 34 -10 19 0 38 5 41 10 3 6 -1 10 -9 10
-11 0 -16 9 -16 30 0 20 5 30 15 30 8 0 15 5 15 10 0 6 -18 10 -40 10 -22 0
-40 -4 -40 -10z"/>
<path d="M2050 540 c0 -5 9 -10 21 -10 16 0 20 -5 17 -27 -2 -16 -9 -28 -17
-28 -8 0 -16 -6 -19 -13 -3 -10 8 -12 44 -10 27 2 48 8 46 13 -2 6 -10 9 -18
9 -9 -1 -14 8 -14 27 0 22 5 29 20 29 11 0 20 5 20 10 0 6 -22 10 -50 10 -27
0 -50 -4 -50 -10z"/>
<path d="M380 530 c0 -5 16 -10 36 -10 21 0 33 4 29 10 -3 6 -19 10 -36 10
-16 0 -29 -4 -29 -10z"/>
<path d="M510 490 c0 -46 2 -50 24 -50 47 0 64 62 18 68 -12 2 -22 10 -22 18
0 8 -4 14 -10 14 -5 0 -10 -22 -10 -50z m50 -16 c0 -8 -7 -14 -15 -14 -15 0
-21 21 -9 33 10 9 24 -2 24 -19z"/>
<path d="M850 510 c0 -19 -7 -33 -19 -40 -27 -14 -31 -13 -31 9 0 15 5 18 23
14 20 -5 21 -4 6 11 -29 31 -69 -6 -49 -45 12 -21 40 -25 58 -7 9 9 12 9 12 0
0 -21 17 -13 23 10 6 20 22 18 22 -3 0 -5 5 -9 10 -9 21 0 10 35 -12 38 -17 3
-23 10 -23 28 0 13 -4 24 -10 24 -5 0 -10 -13 -10 -30z"/>
<path d="M1012 512 c-31 -36 -26 -67 12 -67 27 1 28 3 30 48 2 53 -8 58 -42
19z m18 -32 c-6 -11 -15 -18 -21 -14 -6 4 -6 11 2 20 17 21 31 17 19 -6z"/>
<path d="M1200 529 c0 -5 5 -7 10 -4 6 3 10 8 10 11 0 2 -4 4 -10 4 -5 0 -10
-5 -10 -11z"/>
<path d="M2250 491 c0 -22 -4 -43 -10 -46 -5 -3 -10 1 -10 9 0 9 -4 16 -10 16
-5 0 -10 -9 -10 -19 0 -24 29 -36 46 -19 17 18 22 90 6 96 -8 2 -12 -9 -12
-37z"/>
<path d="M2582 492 c4 -43 22 -50 26 -9 2 15 8 27 13 27 6 0 9 -11 7 -25 -2
-13 2 -24 7 -25 6 0 11 11 13 25 5 35 22 31 22 -5 0 -16 5 -30 10 -30 6 0 10
18 10 39 l0 39 -56 1 -55 0 3 -37z"/>
<path d="M2770 491 c0 -49 17 -55 22 -8 3 34 23 36 23 2 0 -11 5 -21 10 -22 6
-2 10 12 10 30 0 29 -3 32 -32 35 -32 3 -33 2 -33 -37z"/>
<path d="M656 504 c-9 -8 -16 -21 -16 -28 0 -21 27 -38 50 -31 27 9 26 25 -2
22 -15 -1 -23 3 -23 13 0 10 8 14 23 13 25 -3 30 12 6 21 -21 8 -20 8 -38 -10z"/>
<path d="M1132 508 c-28 -28 -1 -75 37 -63 28 8 25 69 -4 73 -11 1 -26 -3 -33
-10z m38 -38 c0 -5 -4 -10 -10 -10 -5 0 -10 5 -10 10 0 6 5 10 10 10 6 0 10
-4 10 -10z"/>
<path d="M1541 502 c-15 -28 -7 -76 13 -80 28 -6 46 18 46 59 0 35 -3 39 -25
39 -13 0 -29 -8 -34 -18z m39 -10 c0 -4 -5 -13 -12 -20 -9 -9 -9 -12 1 -12 7
0 11 -5 9 -11 -6 -19 -23 -5 -26 24 -2 19 1 27 12 27 9 0 16 -4 16 -8z"/>
<path d="M1813 485 c3 -48 21 -49 25 -2 2 28 -1 37 -12 37 -11 0 -14 -10 -13
-35z"/>
<path d="M254 498 c-5 -8 0 -9 14 -6 12 4 22 3 22 -2 0 -4 -9 -10 -21 -13 -31
-8 -17 -32 20 -34 25 -1 31 2 27 14 -3 8 -6 23 -6 34 0 13 -7 19 -24 19 -14 0
-28 -5 -32 -12z m36 -38 c0 -5 -2 -10 -4 -10 -3 0 -8 5 -11 10 -3 6 -1 10 4
10 6 0 11 -4 11 -10z"/>
<path d="M384 499 c-4 -8 0 -9 15 -4 11 3 21 2 21 -3 0 -5 -9 -12 -21 -15 -30
-8 -18 -31 17 -35 29 -3 30 -2 26 33 -3 29 -8 35 -28 35 -12 0 -26 -5 -30 -11z
m36 -39 c0 -5 -4 -10 -10 -10 -5 0 -10 5 -10 10 0 6 5 10 10 10 6 0 10 -4 10
-10z"/>
<path d="M2023 423 c4 -3 3 -11 -3 -17 -6 -8 -3 -12 11 -13 16 -2 17 1 9 18
-6 10 -14 19 -17 19 -3 0 -3 -3 0 -7z"/>
<path d="M760 411 c0 -7 -5 -9 -12 -5 -7 5 -8 3 -3 -5 5 -9 10 -10 18 -2 6 6
8 14 4 18 -4 3 -7 1 -7 -6z"/>
<path d="M1648 399 c-21 -23 -6 -26 16 -3 9 8 16 17 16 20 0 9 -16 1 -32 -17z"/>
<path d="M2315 411 c-3 -5 -2 -12 3 -15 5 -3 9 1 9 9 0 17 -3 19 -12 6z"/>
<path d="M2506 411 c-15 -6 -16 -9 -5 -13 8 -3 20 1 27 8 14 15 7 17 -22 5z"/>
<path d="M2550 410 c0 -5 5 -10 11 -10 5 0 7 5 4 10 -3 6 -8 10 -11 10 -2 0
-4 -4 -4 -10z"/>
<path d="M2417 399 c7 -7 15 -10 18 -7 3 3 -2 9 -12 12 -14 6 -15 5 -6 -5z"/>
<path d="M2457 399 c7 -7 15 -10 18 -7 3 3 -2 9 -12 12 -14 6 -15 5 -6 -5z"/>
<path d="M555 390 c-3 -5 -1 -10 4 -10 6 0 11 5 11 10 0 6 -2 10 -4 10 -3 0
-8 -4 -11 -10z"/>
<path d="M655 390 c3 -5 8 -10 11 -10 2 0 4 5 4 10 0 6 -5 10 -11 10 -5 0 -7
-4 -4 -10z"/>
<path d="M1265 390 c-3 -5 -2 -10 4 -10 5 0 13 5 16 10 3 6 2 10 -4 10 -5 0
-13 -4 -16 -10z"/>
<path d="M1415 390 c-3 -5 -1 -10 4 -10 6 0 11 5 11 10 0 6 -2 10 -4 10 -3 0
-8 -4 -11 -10z"/>
<path d="M2100 389 c0 -5 5 -7 10 -4 6 3 10 8 10 11 0 2 -4 4 -10 4 -5 0 -10
-5 -10 -11z"/>
<path d="M878 383 c7 -3 16 -2 19 1 4 3 -2 6 -13 5 -11 0 -14 -3 -6 -6z"/>
<path d="M2720 335 c0 -18 19 -40 26 -32 4 4 0 15 -9 24 -9 10 -17 13 -17 8z"/>
<path d="M222 290 c0 -14 2 -19 5 -12 2 6 2 18 0 25 -3 6 -5 1 -5 -13z"/>
<path d="M1821 294 c0 -11 3 -14 6 -6 3 7 2 16 -1 19 -3 4 -6 -2 -5 -13z"/>
<path d="M2120 300 c0 -5 5 -10 10 -10 6 0 10 5 10 10 0 6 -4 10 -10 10 -5 0
-10 -4 -10 -10z"/>
<path d="M2561 306 c2 -2 15 -9 29 -16 23 -12 24 -12 11 3 -7 10 -20 17 -29
17 -8 0 -13 -2 -11 -4z"/>
<path d="M1650 296 c0 -2 7 -6 15 -10 8 -3 15 -1 15 4 0 6 -7 10 -15 10 -8 0
-15 -2 -15 -4z"/>
<path d="M1740 290 c0 -5 4 -10 9 -10 6 0 13 5 16 10 3 6 -1 10 -9 10 -9 0
-16 -4 -16 -10z"/>
<path d="M2630 290 c-13 -9 -13 -10 0 -10 8 0 22 5 30 10 13 9 13 10 0 10 -8
0 -22 -5 -30 -10z"/>
<path d="M800 249 c0 -5 5 -7 10 -4 6 3 10 8 10 11 0 2 -4 4 -10 4 -5 0 -10
-5 -10 -11z"/>
<path d="M2108 253 c7 -3 16 -2 19 1 4 3 -2 6 -13 5 -11 0 -14 -3 -6 -6z"/>
<path d="M1510 180 c0 -5 5 -10 11 -10 5 0 7 5 4 10 -3 6 -8 10 -11 10 -2 0
-4 -4 -4 -10z"/>
<path d="M625 170 c-3 -5 -1 -10 4 -10 6 0 11 5 11 10 0 6 -2 10 -4 10 -3 0
-8 -4 -11 -10z"/>
<path d="M150 151 c0 -5 6 -12 13 -14 9 -4 9 -8 -1 -15 -8 -5 -12 -20 -10 -33
2 -19 9 -24 33 -24 24 0 31 5 33 24 2 13 -2 28 -10 33 -10 7 -10 11 0 15 24
10 11 23 -23 23 -19 0 -35 -4 -35 -9z m50 -57 c0 -8 -7 -14 -15 -14 -15 0 -21
21 -9 33 10 9 24 -2 24 -19z"/>
<path d="M1186 148 c-5 -12 -19 -18 -41 -18 -39 0 -58 -29 -25 -37 11 -3 20
-10 20 -15 0 -5 -9 -6 -20 -3 -11 3 -20 2 -20 -4 0 -12 37 -24 50 -16 16 10
11 43 -7 48 -11 3 -7 5 10 6 24 1 27 -3 27 -29 0 -16 5 -30 10 -30 6 0 10 9
10 20 0 11 5 20 10 20 6 0 10 -6 10 -14 0 -8 5 -18 11 -21 7 -5 9 3 7 21 -2
18 -9 29 -18 29 -9 0 -17 13 -21 30 -5 24 -7 27 -13 13z"/>
<path d="M1757 123 c-6 -53 6 -71 45 -68 18 1 34 8 36 15 3 8 0 10 -7 6 -7 -5
-11 7 -11 38 0 44 -1 46 -29 46 -26 0 -29 -4 -34 -37z m41 -15 c-3 -38 -22
-40 -21 -3 1 34 2 35 14 35 6 0 9 -14 7 -32z"/>
<path d="M2284 125 c-6 -32 -19 -41 -19 -13 0 6 -6 13 -12 16 -7 2 -13 -5 -13
-15 -1 -17 -1 -17 -14 0 -7 9 -16 17 -20 17 -9 0 4 -52 17 -68 9 -11 13 -9 20
10 l9 23 9 -23 c10 -26 29 -21 29 8 0 10 5 22 11 26 8 5 10 -1 5 -19 -3 -14
-2 -29 4 -32 5 -3 10 3 10 14 0 12 7 21 15 21 9 0 15 -9 15 -22 0 -16 3 -19
11 -11 18 18 6 48 -19 47 -19 -1 -22 4 -20 25 2 18 -2 27 -14 29 -12 2 -19 -6
-24 -33z"/>
<path d="M2710 152 c0 -4 9 -23 19 -43 13 -23 16 -41 10 -50 -12 -19 -11 -31
2 -27 11 4 49 93 49 116 0 7 -15 12 -40 12 -22 0 -40 -3 -40 -8z m60 -26 c0
-8 -4 -18 -10 -21 -5 -3 -10 -4 -10 -1 0 2 -3 11 -6 20 -4 11 -1 16 10 16 9 0
16 -6 16 -14z"/>
<path d="M1320 140 c-12 -8 -12 -12 -2 -18 7 -5 12 -22 10 -37 -2 -16 2 -30
10 -32 8 -3 13 7 14 31 0 20 1 41 2 48 1 16 -16 20 -34 8z"/>
<path d="M1428 138 c-2 -7 -2 -29 2 -48 4 -29 10 -36 33 -38 23 -3 27 0 27 22
0 17 6 26 16 26 10 0 14 -7 12 -22 -2 -11 3 -23 10 -25 7 -3 12 4 12 15 0 34
-11 52 -32 52 -14 0 -18 5 -14 15 3 9 0 15 -9 15 -11 0 -15 -12 -15 -41 0 -24
-4 -38 -10 -34 -5 3 -9 20 -7 37 2 31 -17 51 -25 26z"/>
<path d="M35 124 c-17 -17 -18 -25 -9 -48 8 -21 50 -21 58 0 15 40 -21 76 -49
48z m35 -30 c0 -8 -7 -14 -15 -14 -15 0 -21 21 -9 33 10 9 24 -2 24 -19z"/>
<path d="M296 121 c-20 -22 -20 -35 0 -55 12 -12 20 -13 35 -6 12 7 25 7 36 1
25 -13 53 5 53 34 0 29 -28 47 -53 34 -11 -6 -23 -6 -36 0 -14 8 -22 6 -35 -8z
m33 -38 c-15 -17 -32 -2 -23 21 5 13 9 14 20 5 11 -9 12 -15 3 -26z m67 1 c-5
-13 -10 -14 -18 -6 -6 6 -8 18 -4 28 5 13 10 14 18 6 6 -6 8 -18 4 -28z"/>
<path d="M2115 118 c-6 -19 -8 -20 -12 -5 -6 21 -23 23 -23 2 0 -8 -4 -15 -10
-15 -5 0 -10 7 -10 15 0 8 -6 15 -14 15 -12 0 -12 -6 -3 -35 11 -37 33 -47 40
-18 3 15 6 13 14 -7 10 -25 10 -25 27 14 10 23 13 43 8 48 -6 6 -12 0 -17 -14z"/>
<path d="M2447 134 c-3 -3 -1 -14 5 -24 9 -14 9 -22 -2 -34 -15 -19 -5 -35 12
-18 9 9 15 9 25 0 20 -16 27 -3 12 23 -9 17 -9 24 0 27 6 2 11 11 11 19 0 13
-3 13 -15 3 -11 -9 -18 -10 -28 -1 -8 6 -17 8 -20 5z"/>
<path d="M2580 130 c0 -6 7 -21 16 -35 12 -18 13 -28 4 -44 -8 -16 -8 -21 2
-21 7 0 21 22 31 49 22 62 21 72 -2 42 l-19 -24 -6 21 c-7 22 -26 31 -26 12z"/>
<path d="M2855 132 c-10 -10 6 -21 23 -15 13 5 12 1 -5 -19 -31 -33 -29 -38
12 -38 19 0 35 5 35 10 0 6 -7 10 -17 10 -15 0 -15 1 0 18 10 10 17 23 17 28
0 9 -56 15 -65 6z"/>
<path d="M490 91 c0 -23 0 -44 -1 -48 0 -4 4 -9 10 -11 6 -2 11 3 11 11 0 8 9
17 21 20 16 4 20 12 17 34 -2 22 -9 29 -30 31 -27 3 -28 1 -28 -37z m40 5 c0
-8 -4 -17 -9 -21 -12 -7 -24 12 -16 25 9 15 25 12 25 -4z"/>
<path d="M625 110 c-22 -24 -13 -54 15 -47 15 4 20 0 20 -14 0 -11 7 -19 16
-19 14 0 15 7 10 37 -3 21 -6 44 -6 51 0 19 -35 14 -55 -8z m35 -15 c0 -8 -7
-15 -15 -15 -16 0 -20 12 -8 23 11 12 23 8 23 -8z"/>
<path d="M697 123 c-12 -12 -7 -40 9 -54 14 -11 34 -14 74 -10 16 2 11 21 -5
21 -11 0 -14 7 -9 25 5 19 2 25 -10 25 -11 0 -16 -9 -16 -30 0 -16 -4 -30 -10
-30 -5 0 -10 14 -10 30 0 29 -9 38 -23 23z"/>
<path d="M847 98 c-2 -18 -3 -36 0 -41 8 -14 23 4 23 30 0 21 4 24 21 20 13
-3 19 -1 16 6 -2 7 -15 13 -29 15 -22 3 -26 -1 -31 -30z"/>
<path d="M975 120 c-8 -14 3 -30 21 -30 8 0 14 -5 14 -11 0 -6 -9 -8 -20 -4
-11 3 -20 2 -20 -4 0 -16 40 -24 55 -11 20 17 19 27 -5 35 -11 3 -20 10 -20
15 0 5 7 7 15 4 8 -4 15 -1 15 5 0 14 -47 15 -55 1z"/>
<path d="M1600 109 c0 -49 21 -61 93 -50 14 2 7 21 -8 21 -9 0 -15 9 -15 25 0
14 -4 25 -10 25 -5 0 -10 -13 -10 -30 0 -16 -4 -30 -10 -30 -5 0 -10 14 -10
30 0 20 -5 30 -15 30 -8 0 -15 -9 -15 -21z"/>
<path d="M1900 126 c0 -9 31 -76 35 -76 2 0 14 18 25 40 16 31 17 40 6 40 -7
0 -17 -10 -21 -22 l-8 -23 -4 23 c-2 12 -11 22 -19 22 -8 0 -14 -2 -14 -4z"/>
<path d="M1408 13 c7 -3 16 -2 19 1 4 3 -2 6 -13 5 -11 0 -14 -3 -6 -6z"/>
<path d="M2180 10 c0 -5 5 -10 11 -10 5 0 7 5 4 10 -3 6 -8 10 -11 10 -2 0 -4
-4 -4 -10z"/>
</g>
</svg>
